<svg width="24" height="24" viewBox="0 0 24 24" fill="none"
  xmlns="http://www.w3.org/2000/svg">
  <path d="M21.9481 9.67148C21.8172 9.2665 21.458 8.97887 21.033 8.94057L15.2605 8.41641L12.9778 3.07372C12.8095 2.68217 12.4262 2.42871 12.0003 2.42871C11.5745 2.42871 11.1912 2.68217 11.0228 3.07463L8.74022 8.41641L2.96676 8.94057C2.54255 8.97978 2.18427 9.2665 2.05258 9.67148C1.92089 10.0765 2.04251 10.5207 2.36341 10.8007L6.72677 14.6274L5.44012 20.2951C5.34597 20.7118 5.50772 21.1426 5.85349 21.3925C6.03935 21.5268 6.25679 21.5952 6.47606 21.5952C6.66513 21.5952 6.85266 21.5442 7.02097 21.4435L12.0003 18.4675L16.9779 21.4435C17.3421 21.6626 17.8013 21.6426 18.1463 21.3925C18.4922 21.1418 18.6538 20.7109 18.5597 20.2951L17.273 14.6274L21.6364 10.8014C21.9573 10.5207 22.0798 10.0772 21.9481 9.67148Z" fill="#DCFFB4"/>
</svg>
