<svg width="24" height="24" viewBox="0 0 24 24" fill="none"
  xmlns="http://www.w3.org/2000/svg">
  <path fill-rule="evenodd" clip-rule="evenodd" d="M13.8904 10.3002L13.4213 9.20218L12.0005 5.8766L10.5793 9.2023L10.1102 10.3003L8.92105 10.4082L5.32178 10.735L8.04549 13.1237L8.94077 13.9089L8.67715 15.0701L7.87513 18.603L10.9743 16.7507L12.0005 16.1374L13.0267 16.7509L16.1247 18.6032L15.3226 15.0701L15.059 13.9087L15.9544 13.1236L18.6785 10.735L15.0796 10.4082L13.8904 10.3002ZM5.44012 20.2951L6.72677 14.6274L2.36341 10.8007C2.04251 10.5207 1.92089 10.0765 2.05258 9.67148C2.18427 9.2665 2.54255 8.97978 2.96676 8.94057L8.74022 8.41641L11.0228 3.07463C11.1912 2.68217 11.5745 2.42871 12.0003 2.42871C12.4262 2.42871 12.8095 2.68217 12.9778 3.07372L15.2605 8.41641L21.033 8.94057C21.458 8.97887 21.8172 9.2665 21.9481 9.67148C22.0798 10.0772 21.9573 10.5207 21.6364 10.8014L17.273 14.6274L18.5597 20.2951C18.6538 20.7109 18.4922 21.1418 18.1463 21.3925C17.8013 21.6426 17.3421 21.6626 16.9779 21.4435L12.0003 18.4675L7.02097 21.4435C6.85266 21.5442 6.66513 21.5952 6.47606 21.5952C6.25679 21.5952 6.03935 21.5268 5.85349 21.3925C5.50772 21.1426 5.34597 20.7118 5.44012 20.2951Z" fill="#808B8C"/>
</svg>
